<svg class="" width="332px" height="142px" x="0px" y="0px" viewBox="0 0 332 142"
    xmlns="http://www.w3.org/2000/svg" version="1.1" style="transform: translate(0,0)">
    <rect x="0" y="0" width="332" height="142" style="fill:transparent;"></rect>
    <g transform="translate(10, 10)" style="fill:#000000;">
        <rect x="0" y="0" width="4" height="100"></rect>
        <rect x="6" y="0" width="2" height="100"></rect>
        <rect x="12" y="0" width="6" height="100"></rect>
        <rect x="22" y="0" width="2" height="100"></rect>
        <rect x="26" y="0" width="4" height="100"></rect>
        <rect x="34" y="0" width="6" height="100"></rect>
        <rect x="44" y="0" width="2" height="100"></rect>
        <rect x="48" y="0" width="8" height="100"></rect>
        <rect x="58" y="0" width="6" height="100"></rect>
        <rect x="66" y="0" width="4" height="100"></rect>
        <rect x="74" y="0" width="2" height="100"></rect>
        <rect x="78" y="0" width="6" height="100"></rect>
        <rect x="88" y="0" width="2" height="100"></rect>
        <rect x="94" y="0" width="4" height="100"></rect>
        <rect x="102" y="0" width="6" height="100"></rect>
        <rect x="110" y="0" width="4" height="100"></rect>
        <rect x="118" y="0" width="2" height="100"></rect>
        <rect x="124" y="0" width="6" height="100"></rect>
        <rect x="132" y="0" width="2" height="100"></rect>
        <rect x="136" y="0" width="2" height="100"></rect>
        <rect x="140" y="0" width="8" height="100"></rect>
        <rect x="154" y="0" width="4" height="100"></rect>
        <rect x="162" y="0" width="2" height="100"></rect>
        <rect x="168" y="0" width="6" height="100"></rect>
        <rect x="176" y="0" width="4" height="100"></rect>
        <rect x="182" y="0" width="6" height="100"></rect>
        <rect x="192" y="0" width="2" height="100"></rect>
        <rect x="198" y="0" width="4" height="100"></rect>
        <rect x="206" y="0" width="6" height="100"></rect>
        <rect x="214" y="0" width="2" height="100"></rect>
        <rect x="220" y="0" width="2" height="100"></rect>
        <rect x="226" y="0" width="4" height="100"></rect>
        <rect x="234" y="0" width="6" height="100"></rect>
        <rect x="242" y="0" width="6" height="100"></rect>
        <rect x="250" y="0" width="4" height="100"></rect>
        <rect x="256" y="0" width="6" height="100"></rect>
        <rect x="264" y="0" width="6" height="100"></rect>
        <rect x="272" y="0" width="2" height="100"></rect>
        <rect x="278" y="0" width="4" height="100"></rect>
        <rect x="286" y="0" width="4" height="100"></rect>
        <rect x="296" y="0" width="6" height="100"></rect>
        <rect x="304" y="0" width="2" height="100"></rect>
        <rect x="308" y="0" width="4" height="100"></rect>
    </g>
</svg>