<svg xmlns="http://www.w3.org/2000/svg" width="366" height="11" viewBox="0 0 366 11" fill="none">
    <path d="M30 -4C30 4.28427 23.2843 11 15 11C6.71573 11 0 4.28427 0 -4C0 -12.2843 6.71573 -19 15 -19C23.2843 -19 30 -12.2843 30 -4Z" fill="white"/>
    <path d="M72 -4C72 4.28427 65.2843 11 57 11C48.7157 11 42 4.28427 42 -4C42 -12.2843 48.7157 -19 57 -19C65.2843 -19 72 -12.2843 72 -4Z" fill="white"/>
    <path d="M114 -4C114 4.28427 107.284 11 99 11C90.7157 11 84 4.28427 84 -4C84 -12.2843 90.7157 -19 99 -19C107.284 -19 114 -12.2843 114 -4Z" fill="white"/>
    <path d="M156 -4C156 4.28427 149.284 11 141 11C132.716 11 126 4.28427 126 -4C126 -12.2843 132.716 -19 141 -19C149.284 -19 156 -12.2843 156 -4Z" fill="white"/>
    <path d="M198 -4C198 4.28427 191.284 11 183 11C174.716 11 168 4.28427 168 -4C168 -12.2843 174.716 -19 183 -19C191.284 -19 198 -12.2843 198 -4Z" fill="white"/>
    <path d="M240 -4C240 4.28427 233.284 11 225 11C216.716 11 210 4.28427 210 -4C210 -12.2843 216.716 -19 225 -19C233.284 -19 240 -12.2843 240 -4Z" fill="white"/>
    <path d="M282 -4C282 4.28427 275.284 11 267 11C258.716 11 252 4.28427 252 -4C252 -12.2843 258.716 -19 267 -19C275.284 -19 282 -12.2843 282 -4Z" fill="white"/>
    <path d="M324 -4C324 4.28427 317.284 11 309 11C300.716 11 294 4.28427 294 -4C294 -12.2843 300.716 -19 309 -19C317.284 -19 324 -12.2843 324 -4Z" fill="white"/>
    <path d="M366 -4C366 4.28427 359.284 11 351 11C342.716 11 336 4.28427 336 -4C336 -12.2843 342.716 -19 351 -19C359.284 -19 366 -12.2843 366 -4Z" fill="white"/>
</svg>