<?xml version="1.0" standalone="no"?>
<!DOCTYPE svg PUBLIC "-//W3C//DTD SVG 1.1//EN" "http://www.w3.org/Graphics/SVG/1.1/DTD/svg11.dtd" >
<svg xmlns="http://www.w3.org/2000/svg" xmlns:xlink="http://www.w3.org/1999/xlink" version="1.1" viewBox="-10 0 1034 1024">
   <path fill="#757575"
d="M704 149q-54 0 -105.5 24t-86.5 66q-35 -42 -86.5 -66t-105.5 -24q-50 0 -92 18q-43 18 -75 50t-50 75q-18 42 -18 92q0 61 26 117q27 57 75 115.5t115 121.5q68 63 151 137l60 55l60 -55q83 -76 151 -139q67 -64 115 -122.5t75 -114.5q26 -56 26 -115q0 -50 -18 -92
q-18 -43 -50 -75t-75 -50q-42 -18 -92 -18v0zM516 811l-4 4l-4 -4q-77 -69 -139 -127q-63 -58 -107 -109t-67 -98q-24 -47 -24 -93q0 -64 42.5 -106.5t106.5 -42.5q48 0 91 28.5t63 73.5h81q16 -45 58.5 -73.5t90.5 -28.5q64 0 106.5 42.5t42.5 106.5q0 46 -24 93
q-23 47 -67 98t-107 109q-62 58 -139 127v0z" />
</svg>
