<?xml version="1.0" standalone="no"?>
<!DOCTYPE svg PUBLIC "-//W3C//DTD SVG 1.1//EN" "http://www.w3.org/Graphics/SVG/1.1/DTD/svg11.dtd" >
<svg xmlns="http://www.w3.org/2000/svg" xmlns:xlink="http://www.w3.org/1999/xlink" version="1.1" viewBox="-10 0 1034 1024">
   <path fill="#757575"
d="M512 926l-60 -60q-83 -73 -151 -137q-67 -63 -115 -121t-75 -115q-26 -57 -26 -118q0 -49 18 -92t50 -74.5t75 -49.5q42 -18 92 -18q54 0 105.5 24t86.5 65q35 -41 86.5 -65t105.5 -24q50 0 92 18q43 18 75 49.5t50 74.5t18 92q0 61 -26 118q-27 57 -75 115t-115 121
q-68 64 -151 137l-60 60v0z" />
</svg>
