<?xml version="1.0" standalone="no"?>
<!DOCTYPE svg PUBLIC "-//W3C//DTD SVG 1.1//EN" "http://www.w3.org/Graphics/SVG/1.1/DTD/svg11.dtd" >
<svg xmlns="http://www.w3.org/2000/svg" xmlns:xlink="http://www.w3.org/1999/xlink" version="1.1" viewBox="-10 0 1034 1024">
   <path fill="#757575"
d="M414 457l-154 -269q55 -39 118.5 -60t133.5 -21q26 0 51 3t47 9l-196 338v0zM90 580q-4 -13 -4.5 -23.5t-0.5 -23.5q0 -43 8 -83q8 -41 23 -78t36 -69q21 -33 49 -60l196 337h-307v0zM529 410l154 -265q41 19 78 46t67.5 60.5t53.5 73.5t35 85h-388zM627 486h307
q0 13 2.5 24t2.5 23q0 44 -9 84q-8 41 -23.5 78t-38.5 71q-22 33 -49 62l-192 -342v0zM495 657l-154 269q-43 -19 -80 -46q-38 -27 -68 -61t-53 -75t-38 -87h62h134.5h135.5h61zM610 614l149 269q-51 35 -114 56t-133 21q-26 0 -49.5 -3t-48.5 -10z" />
</svg>
