<svg xmlns="http://www.w3.org/2000/svg" xml:space="preserve" id="paper" x="0" y="0" style="enable-background:new 0 0 453.543 453.543" version="1.1" viewBox="0 0 453.543 453.543">
  <g>
    <rect width="126.454" height="126.454" x="163.545" y="259.101" style="fill:#f4a07a" transform="rotate(-45.001 226.768 322.332)"></rect>
    <polygon points="226.772 41.798 3.599 411.745 226.772 307.014 449.945 411.745" style="fill:#ffb289"></polygon>
    <polygon points="226.772 41.798 199.558 86.91 226.772 292.662 253.986 86.909" style="fill:#f4a07a"></polygon>
    <path d="M356.745 323.515c8.424-7.626 5.278-24.826-7.026-38.417-12.304-13.59-29.107-18.426-37.531-10.8-8.424 7.627-5.279 24.826 7.025 38.418C331.517 326.307 348.321 331.141 356.745 323.515zM364.532 344.546c-.983-5.324 2.534-10.437 7.858-11.421 5.323-.984 10.437 2.534 11.42 7.857.984 5.323-2.534 10.437-7.857 11.421C370.629 353.387 365.516 349.869 364.532 344.546z" style="fill:#fff1e6"></path>
    <path d="M298.052,340.465l1.528-3.257l-71.28-33.45c-0.966-0.453-2.092-0.453-3.057,0l-71.28,33.45
		c-1.056,0.496-1.814,1.488-2.015,2.637c-0.201,1.149,0.174,2.339,1,3.164l71.28,71.28c0.67,0.67,1.597,1.054,2.544,1.054
		c0.947,0,1.873-0.384,2.544-1.054l71.28-71.28c0.824-0.825,1.201-2.015,1-3.164c-0.201-1.149-0.959-2.141-2.015-2.637
		L298.052,340.465l-2.544-2.544l-68.736,68.736l-65.112-65.112l65.112-30.556l69.752,32.733L298.052,340.465l-2.544-2.544
		L298.052,340.465z"></path>
    <path d="M298.052,340.465l-1.529,3.257l151.893,71.28c1.436,0.674,3.14,0.33,4.202-0.849c1.062-1.179,1.227-2.909,0.408-4.267
		L229.852,39.94c-0.652-1.081-1.818-1.739-3.08-1.739c-1.263,0-2.429,0.659-3.081,1.739L0.518,409.886
		c-0.82,1.358-0.654,3.088,0.408,4.267s2.765,1.523,4.202,0.849l151.893-71.28l69.751-32.733l69.752,32.733L298.052,340.465
		l1.528-3.257l-71.28-33.45c-0.966-0.453-2.092-0.453-3.057,0l-71.28,33.45l-141.16,66.243L226.772,48.763L440.739,403.45
		l-141.158-66.243L298.052,340.465z"></path>
    <path d="m226.772 41.798-3.081-1.859-27.214 45.112c-.422.699-.593 1.521-.486 2.33l27.214 205.752c.236 1.787 1.764 3.126 3.566 3.126 1.802 0 3.33-1.34 3.567-3.126l27.214-205.753c.107-.809-.064-1.632-.486-2.33L229.852 39.94c-.652-1.081-1.818-1.739-3.08-1.739-1.263 0-2.429.659-3.081 1.739L226.772 41.798l-3.081 1.858 26.562 44.032-23.483 177.538L203.289 87.688l26.563-44.031L226.772 41.798l-3.081 1.858L226.772 41.798zM356.745 323.515l2.414 2.667c2.041-1.845 3.545-4.143 4.504-6.659.963-2.52 1.402-5.255 1.402-8.088-.004-4.645-1.167-9.571-3.312-14.473-2.15-4.901-5.297-9.78-9.367-14.278-4.452-4.914-9.464-8.776-14.584-11.443-5.121-2.66-10.356-4.148-15.327-4.155-4.686-.012-9.235 1.395-12.704 4.546-2.041 1.844-3.545 4.141-4.505 6.658-.964 2.52-1.402 5.256-1.402 8.089.004 4.644 1.166 9.571 3.312 14.473 2.15 4.901 5.297 9.78 9.369 14.279 4.451 4.914 9.462 8.776 14.581 11.442 5.121 2.66 10.355 4.148 15.326 4.155 4.686.012 9.234-1.396 12.705-4.545L356.745 323.515l-2.414-2.668c-1.948 1.753-4.545 2.673-7.878 2.685-3.498.007-7.709-1.1-12.003-3.342-4.296-2.235-8.67-5.58-12.569-9.889-3.57-3.942-6.299-8.198-8.113-12.339-1.819-4.14-2.711-8.162-2.707-11.584 0-2.09.327-3.95.928-5.517.604-1.57 1.463-2.85 2.615-3.897 1.943-1.751 4.54-2.672 7.874-2.684 3.498-.007 7.709 1.1 12.005 3.342 4.297 2.235 8.671 5.58 12.571 9.889 3.569 3.941 6.296 8.197 8.111 12.338 1.819 4.14 2.711 8.162 2.707 11.584 0 2.09-.327 3.95-.927 5.517-.604 1.57-1.462 2.85-2.613 3.896L356.745 323.515zM364.532 344.546l3.537-.657c-.071-.384-.105-.763-.105-1.136.001-2.92 2.089-5.545 5.079-6.09.387-.072.765-.105 1.139-.105 2.919 0 5.544 2.09 6.09 5.079l-.001-.004c.071.386.104.767.105 1.142 0 2.919-2.092 5.547-5.078 6.091-.385.071-.765.105-1.139.105-2.92 0-5.546-2.091-6.09-5.078l-.001-.004L364.532 344.546l-3.538.653c1.199 6.455 6.814 10.967 13.165 10.967.809 0 1.628-.074 2.447-.225 6.454-1.202 10.966-6.816 10.966-13.167.001-.807-.073-1.625-.223-2.443l-.001-.004c-1.202-6.454-6.816-10.966-13.166-10.966-.81 0-1.629.074-2.447.225-6.455 1.2-10.967 6.816-10.966 13.166-.001.81.074 1.63.226 2.45l-.001-.004L364.532 344.546z"></path>
  </g>
</svg>
