<svg xmlns="http://www.w3.org/2000/svg" xml:space="preserve" id="rock" x="0" y="0" style="enable-background:new 0 0 512 512" version="1.1" viewBox="0 0 512 512">
  <g id="Icons">
    <g id="ROCK">
      <g>
        <path d="M476.8,416.2c0,0-78.2-58.1-110.2-48.1c-41.2,12.9-42.7,93.3-42.7,93.3s-37.3-72.3-77.1-66.2
				c-22.9,3.5-44,29.1-59.8,72.3c0,0-1.7-65.2-30.1-82c-32.8-19.4-80.5-10.8-108.2-1.1c0,0,64-44.1,59-75.9
				C103.4,281.6,0,284.9,0,284.9s96.6-15.1,116.3-60.3c16.2-37.1-36.6-94.2-36.6-94.2s63,43.6,90.9,28.3S171,58.3,171,58.3
				s35.1,71.5,71.9,76.3c36.7,4.8,50.1-73.5,50.1-73.5s0.7,65.8,17.2,73.2c21.7,9.7,57.7-46.8,57.7-46.8s-4.3,48.5,12.3,57.6
				c15.7,8.7,75.9-40.9,75.9-40.9s-70.6,72.5-59.8,98.5c9.3,22.3,66.2,13.5,106.1-7.5c0,0-76.1,45.3-75.8,63.7
				c0.4,21.3,52.1,35.9,85.5,39.7c0,0-81.2,0-89.7,31.5C416.1,352.7,476.8,416.2,476.8,416.2L476.8,416.2z"></path>
        <path d="M317.1,431.5c-2.2-3.1-4.6-6.4-7.3-9.6c-19.7-24.6-39.2-37-58.2-37c-2.1,0-4.2,0.2-6.3,0.5
				c-19.8,3-37.8,18.6-52.8,45.5c-4.4-20.4-13.2-43.7-30.5-54c-14.6-8.6-32.8-13-53.9-13c-7.1,0-14,0.5-20.6,1.3
				c22.6-22.1,32.7-41.7,30.1-58.2c-3.1-19-29.1-25.3-48.4-28.3c-2.1-0.3-4.2-0.6-6.3-0.9c25.9-10.4,52.4-26.1,62.5-49.1
				c7.8-17.9,4-40.7-11.3-67.6c13.7,6.1,28.8,11,41.9,11c7.4,0,13.9-1.5,19.3-4.5c14.5-8,20.1-26.9,16.8-57.6
				c16.9,20.9,33.5,32.5,49.4,34.6c1.5,0.2,3,0.3,4.5,0.3c19.5,0,32.8-16.2,41.7-34.3c3.8,18.7,9.6,29,18.3,32.9c3,1.3,6.1,2,9.5,2
				c14.8,0,30.6-14.2,42.6-28.1c2,19.3,7.6,31.3,17.2,36.5c2.7,1.5,5.9,2.2,9.4,2.2c5.6,0,12.6-2.2,20.1-5.7
				c-17.4,25.4-23.1,43.4-17.8,56.1c3.7,8.8,13.6,19.2,40.2,19.2c4.6,0,9.5-0.3,14.5-0.9c-22,18-25.3,27.4-25.2,34.2
				c0.3,17.2,18.6,28.9,39,36.5c-24.5,6.5-38.9,17.2-42.9,31.9c-1.9,7.1-1.9,19.6,17.3,47.5c-18.7-9.8-39-17.9-54.9-17.9
				c-4.1,0-8,0.5-11.4,1.6C333.8,367.9,321.9,404.6,317.1,431.5L317.1,431.5z" style="fill:#94c120"></path>
        <path d="M429.9,374.9c-18.7-9.8-39-17.9-54.9-17.9c-4.1,0-8,0.5-11.4,1.6c-29.9,9.4-41.8,46-46.6,72.9
				c-2.2-3.1-4.6-6.4-7.3-9.6c-19.7-24.6-39.2-37-58.2-37c-2.1,0-4.2,0.2-6.3,0.5c-19.8,3-37.8,18.6-52.8,45.5
				c-4.4-20.4-13.2-43.7-30.5-54c-14.6-8.6-32.8-13-53.9-13c-7.1,0-14,0.5-20.6,1.3c22.6-22.1,32.7-41.7,30.1-58.2
				c-3.1-19-29.1-25.3-48.4-28.3c-2.1-0.3-4.2-0.6-6.3-0.9c0,0,55.6-10.8,68.6,26.4c9.3,26.8-11.6,47.5-11.6,47.5
				s56.7-10.9,75.9,51.2c0,0,45.7-78.1,114.1-3.6c0,0,8.7-45,43.1-56.4C381.5,333.5,403.5,348.3,429.9,374.9L429.9,374.9z" style="fill:#498e00"></path>
        <path d="M455.5,295.5c-65.4,0-53.6-55.2-53.6-55.2c-49.5-20.4-25.3-71.1-25.3-71.1c-26.5-1.9-26.9-26.9-26.9-26.9
				c-45.1,34.7-64.5-8.2-64.5-8.2s-7.5,18.7-32.4,21.4c-41.9,4.6-60.7-45.7-60.7-45.7c16.9,20.9,33.5,32.5,49.4,34.6
				c1.5,0.2,3,0.3,4.5,0.3c19.5,0,32.8-16.2,41.7-34.3c3.8,18.7,9.6,29,18.3,32.9c3,1.3,6.1,2,9.5,2c14.8,0,30.6-14.2,42.6-28.1
				c2,19.3,7.6,31.3,17.2,36.5c2.7,1.5,5.9,2.3,9.4,2.3c5.6,0,12.6-2.2,20.1-5.7c-17.4,25.4-23.1,43.4-17.8,56.1
				c3.7,8.8,13.6,19.2,40.2,19.2c4.6,0,9.5-0.3,14.5-0.9c-22,18-25.3,27.4-25.2,34.3C416.8,276.2,435.1,287.9,455.5,295.5
				L455.5,295.5z" style="fill:#e4f910"></path>
        <path d="M323.5,226c0,4.1-3.4,7.5-7.5,7.5s-7.5-3.4-7.5-7.5s3.4-7.5,7.5-7.5S323.5,221.9,323.5,226z M316,188.5
				c-4.1,0-7.5,3.4-7.5,7.5s3.4,7.5,7.5,7.5s7.5-3.4,7.5-7.5S320.1,188.5,316,188.5z M346,188.5c-4.1,0-7.5,3.4-7.5,7.5
				s3.4,7.5,7.5,7.5s7.5-3.4,7.5-7.5S350.1,188.5,346,188.5z M316,158.5c-4.1,0-7.5,3.4-7.5,7.5s3.4,7.5,7.5,7.5s7.5-3.4,7.5-7.5
				S320.1,158.5,316,158.5z M338.5,376c0,0.2,0,0.5,0,0.7c2.3-3,4.9-5.7,7.7-8.2c-0.1,0-0.1,0-0.2,0
				C341.9,368.5,338.5,371.9,338.5,376L338.5,376z M316,308.5c-4.1,0-7.5,3.4-7.5,7.5s3.4,7.5,7.5,7.5s7.5-3.4,7.5-7.5
				S320.1,308.5,316,308.5z M316,278.5c-4.1,0-7.5,3.4-7.5,7.5s3.4,7.5,7.5,7.5s7.5-3.4,7.5-7.5S320.1,278.5,316,278.5z M316,338.5
				c-4.1,0-7.5,3.4-7.5,7.5s3.4,7.5,7.5,7.5s7.5-3.4,7.5-7.5S320.1,338.5,316,338.5z M346,158.5c-4.1,0-7.5,3.4-7.5,7.5
				s3.4,7.5,7.5,7.5s7.5-3.4,7.5-7.5S350.1,158.5,346,158.5z M256,308.5c-4.1,0-7.5,3.4-7.5,7.5s3.4,7.5,7.5,7.5
				c4.1,0,7.5-3.4,7.5-7.5S260.1,308.5,256,308.5z M316,368.5c-4.1,0-7.5,3.4-7.5,7.5s3.4,7.5,7.5,7.5s7.5-3.4,7.5-7.5
				S320.1,368.5,316,368.5z M286,248.5c-4.1,0-7.5,3.4-7.5,7.5c0,4.1,3.4,7.5,7.5,7.5s7.5-3.4,7.5-7.5
				C293.5,251.9,290.1,248.5,286,248.5z M256,383.5c4.1,0,7.5-3.4,7.5-7.5s-3.4-7.5-7.5-7.5s-7.5,3.4-7.5,7.5S251.9,383.5,256,383.5
				z M261.6,141c-2,1-4.1,1.9-6.3,2.5c0.2,0,0.4,0,0.7,0C258.2,143.5,260.2,142.5,261.6,141z M286,308.5c-4.1,0-7.5,3.4-7.5,7.5
				s3.4,7.5,7.5,7.5s7.5-3.4,7.5-7.5S290.1,308.5,286,308.5z M286,278.5c-4.1,0-7.5,3.4-7.5,7.5s3.4,7.5,7.5,7.5s7.5-3.4,7.5-7.5
				S290.1,278.5,286,278.5z M286,338.5c-4.1,0-7.5,3.4-7.5,7.5s3.4,7.5,7.5,7.5s7.5-3.4,7.5-7.5S290.1,338.5,286,338.5z M256,218.5
				c-4.1,0-7.5,3.4-7.5,7.5s3.4,7.5,7.5,7.5c4.1,0,7.5-3.4,7.5-7.5S260.1,218.5,256,218.5z M256,248.5c-4.1,0-7.5,3.4-7.5,7.5
				c0,4.1,3.4,7.5,7.5,7.5c4.1,0,7.5-3.4,7.5-7.5C263.5,251.9,260.1,248.5,256,248.5z M256,278.5c-4.1,0-7.5,3.4-7.5,7.5
				s3.4,7.5,7.5,7.5c4.1,0,7.5-3.4,7.5-7.5S260.1,278.5,256,278.5z M256,338.5c-4.1,0-7.5,3.4-7.5,7.5s3.4,7.5,7.5,7.5
				c4.1,0,7.5-3.4,7.5-7.5S260.1,338.5,256,338.5z M256,158.5c-4.1,0-7.5,3.4-7.5,7.5s3.4,7.5,7.5,7.5c4.1,0,7.5-3.4,7.5-7.5
				S260.1,158.5,256,158.5z M256,188.5c-4.1,0-7.5,3.4-7.5,7.5s3.4,7.5,7.5,7.5c4.1,0,7.5-3.4,7.5-7.5S260.1,188.5,256,188.5z
				 M316,248.5c-4.1,0-7.5,3.4-7.5,7.5c0,4.1,3.4,7.5,7.5,7.5s7.5-3.4,7.5-7.5C323.5,251.9,320.1,248.5,316,248.5z M432.6,232.7
				c2.6-2.4,5.6-5.1,9.1-7.9c-4.6,0.6-9,0.9-13.2,0.9c0,0.1,0,0.2,0,0.3C428.5,228.9,430.2,231.4,432.6,232.7L432.6,232.7z
				 M376,353.5c4.1,0,7.5-3.4,7.5-7.5s-3.4-7.5-7.5-7.5s-7.5,3.4-7.5,7.5S371.9,353.5,376,353.5z M376,158.5c-4.1,0-7.5,3.4-7.5,7.5
				s3.4,7.5,7.5,7.5s7.5-3.4,7.5-7.5S380.1,158.5,376,158.5z M406,278.5c-4.1,0-7.5,3.4-7.5,7.5s3.4,7.5,7.5,7.5s7.5-3.4,7.5-7.5
				S410.1,278.5,406,278.5z M406,248.5c-4.1,0-7.5,3.4-7.5,7.5c0,4.1,3.4,7.5,7.5,7.5s7.5-3.4,7.5-7.5
				C413.5,251.9,410.1,248.5,406,248.5z M376,218.5c-4.1,0-7.5,3.4-7.5,7.5s3.4,7.5,7.5,7.5s7.5-3.4,7.5-7.5S380.1,218.5,376,218.5z
				 M376,308.5c-4.1,0-7.5,3.4-7.5,7.5s3.4,7.5,7.5,7.5s7.5-3.4,7.5-7.5S380.1,308.5,376,308.5z M376,278.5c-4.1,0-7.5,3.4-7.5,7.5
				s3.4,7.5,7.5,7.5s7.5-3.4,7.5-7.5S380.1,278.5,376,278.5z M406,353.5c4.1,0,7.5-3.4,7.5-7.5s-3.4-7.5-7.5-7.5s-7.5,3.4-7.5,7.5
				S401.9,353.5,406,353.5z M376,188.5c-4.1,0-7.5,3.4-7.5,7.5s3.4,7.5,7.5,7.5s7.5-3.4,7.5-7.5S380.1,188.5,376,188.5z M376,248.5
				c-4.1,0-7.5,3.4-7.5,7.5c0,4.1,3.4,7.5,7.5,7.5s7.5-3.4,7.5-7.5C383.5,251.9,380.1,248.5,376,248.5z M398.5,226
				c0,4.1,3.4,7.5,7.5,7.5s7.5-3.4,7.5-7.5c0-0.5,0-1-0.1-1.4c-5-0.9-9.2-2.3-12.6-3.9C399.4,222,398.5,223.9,398.5,226L398.5,226z
				 M346,338.5c-4.1,0-7.5,3.4-7.5,7.5s3.4,7.5,7.5,7.5s7.5-3.4,7.5-7.5S350.1,338.5,346,338.5z M346,308.5c-4.1,0-7.5,3.4-7.5,7.5
				s3.4,7.5,7.5,7.5s7.5-3.4,7.5-7.5S350.1,308.5,346,308.5z M346,143.5c4.1,0,7.5-3.4,7.5-7.5c0-3.7-2.6-6.7-6.1-7.4
				c-2.9,2.7-5.8,5.2-8.8,7.4C338.6,140.2,341.9,143.5,346,143.5L346,143.5z M346,278.5c-4.1,0-7.5,3.4-7.5,7.5s3.4,7.5,7.5,7.5
				s7.5-3.4,7.5-7.5S350.1,278.5,346,278.5z M346,248.5c-4.1,0-7.5,3.4-7.5,7.5c0,4.1,3.4,7.5,7.5,7.5s7.5-3.4,7.5-7.5
				C353.5,251.9,350.1,248.5,346,248.5z M429,373.5c-0.1,0.3-0.2,0.5-0.2,0.8c0.4,0.2,0.8,0.4,1.2,0.6
				C429.6,374.4,429.3,373.9,429,373.5L429,373.5z M316,398.5c-4.1,0-7.5,3.4-7.5,7.5s3.4,7.5,7.5,7.5c2.5,0,4.7-1.2,6.1-3.1
				c0.4-1.5,0.9-2.9,1.4-4.4C323.5,401.8,320.1,398.5,316,398.5L316,398.5z M429.7,281.9c-0.8,1.2-1.2,2.6-1.2,4.1
				c0,4.1,3.4,7.5,7.5,7.5c2.7,0,5.1-1.5,6.4-3.7C437.8,287.5,433.5,284.8,429.7,281.9L429.7,281.9z M346,218.5
				c-4.1,0-7.5,3.4-7.5,7.5s3.4,7.5,7.5,7.5s7.5-3.4,7.5-7.5S350.1,218.5,346,218.5z M315,428.6c0.7,1,1.4,2,2.1,2.9
				c0.2-0.9,0.3-1.9,0.5-2.8c-0.5-0.1-1.1-0.2-1.6-0.2C315.7,428.5,315.3,428.5,315,428.6L315,428.6z M406,308.5
				c-4.1,0-7.5,3.4-7.5,7.5s3.4,7.5,7.5,7.5s7.5-3.4,7.5-7.5S410.1,308.5,406,308.5z M173,168.7c-3.6,1.6-7.5,2.6-11.8,3.1
				c1.3,1.1,3,1.8,4.8,1.8C169.2,173.5,171.9,171.5,173,168.7L173,168.7z M106,263.5c4.1,0,7.5-3.4,7.5-7.5c0-2.6-1.3-4.9-3.4-6.3
				c-3.4,3.2-7.1,6.2-11.1,9.1C100.1,261.5,102.8,263.5,106,263.5L106,263.5z M166,353.5c4.1,0,7.5-3.4,7.5-7.5s-3.4-7.5-7.5-7.5
				s-7.5,3.4-7.5,7.5S161.9,353.5,166,353.5z M169.6,382.6c2.3-1.3,3.9-3.8,3.9-6.6c0-4.1-3.4-7.5-7.5-7.5c-3.8,0-6.9,2.8-7.4,6.5
				c1.2,0.6,2.4,1.3,3.5,1.9C164.8,378.5,167.3,380.4,169.6,382.6L169.6,382.6z M192.2,109.9c0.1,0.9,0.2,1.8,0.3,2.7
				c0.8,0.4,1.7,0.7,2.7,0.8C194.2,112.3,193.2,111.1,192.2,109.9L192.2,109.9z M166,218.5c-4.1,0-7.5,3.4-7.5,7.5s3.4,7.5,7.5,7.5
				s7.5-3.4,7.5-7.5S170.2,218.5,166,218.5z M113.5,286c0-4.1-3.4-7.5-7.5-7.5s-7.5,3.4-7.5,7.5c0,0.1,0,0.2,0,0.4
				c4,1.8,7.6,3.9,10.7,6.4C111.7,291.6,113.5,289,113.5,286L113.5,286z M76,278.5c-1.2,0-2.3,0.3-3.3,0.8c2.9,0.5,5.9,1.1,8.9,1.8
				C80.2,279.5,78.2,278.5,76,278.5z M166,278.5c-4.1,0-7.5,3.4-7.5,7.5c0,4.1,3.4,7.5,7.5,7.5s7.5-3.4,7.5-7.5
				C173.5,281.9,170.2,278.5,166,278.5z M166,248.5c-4.1,0-7.5,3.4-7.5,7.5s3.4,7.5,7.5,7.5s7.5-3.4,7.5-7.5S170.2,248.5,166,248.5z
				 M166,308.5c-4.1,0-7.5,3.4-7.5,7.5s3.4,7.5,7.5,7.5s7.5-3.4,7.5-7.5S170.2,308.5,166,308.5z M166,188.5c-4.1,0-7.5,3.4-7.5,7.5
				s3.4,7.5,7.5,7.5s7.5-3.4,7.5-7.5S170.2,188.5,166,188.5z M196,188.5c-4.1,0-7.5,3.4-7.5,7.5s3.4,7.5,7.5,7.5s7.5-3.4,7.5-7.5
				S200.2,188.5,196,188.5z M196,158.5c-4.1,0-7.5,3.4-7.5,7.5s3.4,7.5,7.5,7.5s7.5-3.4,7.5-7.5S200.2,158.5,196,158.5z M203.5,136
				c0-4.1-3.4-7.5-7.5-7.5c-1.1,0-2.1,0.2-3,0.6c-0.1,4.7-0.6,9.1-1.4,13c1.2,0.9,2.7,1.4,4.3,1.4
				C200.2,143.5,203.5,140.1,203.5,136z M196,218.5c-4.1,0-7.5,3.4-7.5,7.5s3.4,7.5,7.5,7.5s7.5-3.4,7.5-7.5S200.2,218.5,196,218.5z
				 M192.6,430.9c0.4-0.7,0.8-1.4,1.1-2c-0.5,0.2-1,0.4-1.4,0.6C192.4,430,192.5,430.4,192.6,430.9L192.6,430.9z M196,413.5
				c4.1,0,7.5-3.4,7.5-7.5s-3.4-7.5-7.5-7.5s-7.5,3.4-7.5,7.5S191.9,413.5,196,413.5z M196,338.5c-4.1,0-7.5,3.4-7.5,7.5
				s3.4,7.5,7.5,7.5s7.5-3.4,7.5-7.5S200.2,338.5,196,338.5z M196,368.5c-4.1,0-7.5,3.4-7.5,7.5s3.4,7.5,7.5,7.5s7.5-3.4,7.5-7.5
				S200.2,368.5,196,368.5z M196,278.5c-4.1,0-7.5,3.4-7.5,7.5s3.4,7.5,7.5,7.5s7.5-3.4,7.5-7.5S200.2,278.5,196,278.5z M196,308.5
				c-4.1,0-7.5,3.4-7.5,7.5s3.4,7.5,7.5,7.5s7.5-3.4,7.5-7.5S200.2,308.5,196,308.5z M196,248.5c-4.1,0-7.5,3.4-7.5,7.5
				c0,4.1,3.4,7.5,7.5,7.5s7.5-3.4,7.5-7.5C203.5,251.9,200.2,248.5,196,248.5z M106,353.5c4.1,0,7.5-3.4,7.5-7.5
				c0-3-1.8-5.7-4.4-6.8c-2.4,3.9-5.2,7.9-8.6,11.9C101.9,352.6,103.8,353.5,106,353.5L106,353.5z M226,338.5
				c-4.1,0-7.5,3.4-7.5,7.5s3.4,7.5,7.5,7.5s7.5-3.4,7.5-7.5S230.2,338.5,226,338.5z M286.3,113.5c0.7,0,1.4-0.2,2.1-0.4
				c-0.2-0.9-0.4-1.7-0.6-2.6C287.3,111.5,286.8,112.5,286.3,113.5L286.3,113.5z M226,308.5c-4.1,0-7.5,3.4-7.5,7.5s3.4,7.5,7.5,7.5
				s7.5-3.4,7.5-7.5S230.2,308.5,226,308.5z M226,278.5c-4.1,0-7.5,3.4-7.5,7.5s3.4,7.5,7.5,7.5s7.5-3.4,7.5-7.5
				S230.2,278.5,226,278.5z M226,248.5c-4.1,0-7.5,3.4-7.5,7.5c0,4.1,3.4,7.5,7.5,7.5s7.5-3.4,7.5-7.5
				C233.5,251.9,230.2,248.5,226,248.5z M286,188.5c-4.1,0-7.5,3.4-7.5,7.5s3.4,7.5,7.5,7.5s7.5-3.4,7.5-7.5S290.2,188.5,286,188.5z
				 M286,158.5c-4.1,0-7.5,3.4-7.5,7.5s3.4,7.5,7.5,7.5s7.5-3.4,7.5-7.5S290.2,158.5,286,158.5z M226,218.5c-4.1,0-7.5,3.4-7.5,7.5
				s3.4,7.5,7.5,7.5s7.5-3.4,7.5-7.5S230.2,218.5,226,218.5z M286.7,398.5c2.2,1.7,4.3,3.5,6.5,5.4
				C292.4,401,289.8,398.8,286.7,398.5z M286,383.5c4.1,0,7.5-3.4,7.5-7.5s-3.4-7.5-7.5-7.5s-7.5,3.4-7.5,7.5S281.9,383.5,286,383.5
				z M286,128.5c-4.1,0-7.5,3.4-7.5,7.5s3.4,7.5,7.5,7.5s7.5-3.4,7.5-7.5S290.2,128.5,286,128.5z M286,218.5c-4.1,0-7.5,3.4-7.5,7.5
				s3.4,7.5,7.5,7.5s7.5-3.4,7.5-7.5S290.2,218.5,286,218.5z M136,278.5c-4.1,0-7.5,3.4-7.5,7.5s3.4,7.5,7.5,7.5s7.5-3.4,7.5-7.5
				S140.2,278.5,136,278.5z M136,338.5c-4.1,0-7.5,3.4-7.5,7.5s3.4,7.5,7.5,7.5s7.5-3.4,7.5-7.5S140.2,338.5,136,338.5z M136,308.5
				c-4.1,0-7.5,3.4-7.5,7.5s3.4,7.5,7.5,7.5s7.5-3.4,7.5-7.5S140.2,308.5,136,308.5z M136,248.5c-4.1,0-7.5,3.4-7.5,7.5
				c0,4.1,3.4,7.5,7.5,7.5s7.5-3.4,7.5-7.5C143.5,251.9,140.2,248.5,136,248.5z M136,218.5c-4.1,0-7.5,3.4-7.5,7.5s3.4,7.5,7.5,7.5
				s7.5-3.4,7.5-7.5S140.2,218.5,136,218.5z M226,143.5c1.9,0,3.6-0.7,4.9-1.8c-4.1-1.6-8.2-3.8-12.3-6.6c0,0.3-0.1,0.6-0.1,0.9
				C218.5,140.1,221.9,143.5,226,143.5z M136,203.5c4.1,0,7.5-3.4,7.5-7.5s-3.4-7.5-7.5-7.5s-7.5,3.4-7.5,7.5S131.9,203.5,136,203.5
				z M226,188.5c-4.1,0-7.5,3.4-7.5,7.5s3.4,7.5,7.5,7.5s7.5-3.4,7.5-7.5S230.2,188.5,226,188.5z M226,158.5c-4.1,0-7.5,3.4-7.5,7.5
				s3.4,7.5,7.5,7.5s7.5-3.4,7.5-7.5S230.2,158.5,226,158.5z M226,383.5c4.1,0,7.5-3.4,7.5-7.5s-3.4-7.5-7.5-7.5s-7.5,3.4-7.5,7.5
				S221.9,383.5,226,383.5z M136,173.5c2.5,0,4.7-1.2,6-3.1c-4.5-0.9-9-2.2-13.5-3.7C128.9,170.5,132.1,173.5,136,173.5L136,173.5z" style="opacity:.1;enable-background:new"></path>
        <g>
          <polygon points="374 395.1 429.8 442 409.8 458.3"></polygon>
          <polygon points="138.1 399.7 74.7 433.3 92.4 453.7"></polygon>
          <polygon points="380.7 128.6 420.3 69.5 435.3 85.8"></polygon>
          <polygon points="142.2 128.6 125.8 77.9 106.4 92.8"></polygon>
          <polygon points="246.4 116 222.6 49.3 238.7 44.5"></polygon>
          <polygon points="248.4 418.7 262.5 452.3 248.4 454.8"></polygon>
        </g>
      </g>
      <g>
        <path d="M492,182.9c-1-1.3-2.3-2.3-3.8-2.9c-0.3-0.7-0.7-1.4-1.2-2.1c-1.9-2.4-4.8-3.8-7.9-3.8c-0.5,0-1.1,0.1-1.6,0.1
				c-3.8,0.6-8.9,1.4-15.1,2.2c-6.3,0.8-13.5,1.8-21.2,3.1c-2.7,0.4-5,1.9-6.5,4c-1.1-1.6-2.5-2.7-4.1-3.5c-0.2-0.4-0.3-0.7-0.5-1.1
				c-1.8-3-5.1-4.8-8.5-4.8c-0.5,0-1.1,0-1.6,0.1c-6.5,1-13,1.9-19.5,2.5c-6.5,0.7-13.2,1.3-19.9,1.8c-3.2,0.2-6.1,2-7.7,4.8
				c-0.6,1-1.2,2-1.8,2.9c-0.5-0.3-1-0.6-1.5-0.8c-0.3-0.7-0.7-1.4-1.2-2.1c-1.9-2.4-4.8-3.9-7.9-3.9c-1.9,0-3.8,0-5.7-0.1
				c-1.8-0.1-3.7-0.1-5.7-0.3c-1.7-0.1-3.5-0.3-5.3-0.4l-5.5-0.4l-10.6-0.6c-0.2,0-0.4,0-0.6,0c-4.7,0-8.7,3.2-9.7,7.7
				c-6.1-5.3-13.4-8.1-21.5-8.1c-12.5,0-24,3.6-34.4,10.7c-7.2,5-13.7,11.2-19.5,18.5c-2.3-7.5-6.1-13.8-11.5-18.8
				c-0.5-0.5-1.1-1-1.7-1.4c-1-1.2-2.1-2.4-3.3-3.6c-6.3-5.9-14.8-8.8-25.5-8.8c-12.4,0-24.3,4.3-35.3,12.7
				c-5.6,4.3-10.9,9.4-15.9,15.1c-1.3-3.4-3.1-6.5-5.3-9.2c-1.2-1.5-2.6-2.8-4.1-3.9c-0.3-0.4-0.6-0.8-0.9-1.1
				c-5.8-6.9-15.1-10.2-28.5-10.2c-9.1,0-18.4,0.6-27.6,1.8c-9.4,1.2-18.3,3.1-26.5,5.7c-3.8,1.2-6.5,4.5-6.9,8.5
				c-0.9,8.5-2.2,17.7-3.8,27.4c-1.7,9.9-3.5,20.1-5.3,30c-1.8,10-3.6,20-5.2,29.8L24,332.7c-0.7,3.4,0.4,6.9,2.9,9.2
				c0.8,0.8,1.8,1.4,2.8,1.8c0.5,1.2,1.3,2.2,2.2,3.2c1.9,1.8,4.4,2.7,6.9,2.7c0.8,0,1.7-0.1,2.5-0.3l32.6-8.5c3.8-1,6.7-4.1,7.3-8
				l1.2-7c0.7,2.6,1.5,5.3,2.3,8.1c0.8,2.6,2.6,4.9,5,6.1c0.2,0.1,0.3,0.1,0.5,0.2c0.9,2,2.5,3.7,4.5,4.8c1.4,0.8,3,1.1,4.6,1.1
				c1.1,0,2.2-0.2,3.3-0.6l26.7-9.3c0.1,0.1,0.2,0.2,0.4,0.3c7.5,8.9,17.5,13.6,29.2,13.6c9.7,0,19.8-3.1,30.1-9.1
				c9.8-5.8,19.1-14.1,27.6-24.8c0.4-0.5,0.8-1,1.2-1.6c1.6,5.2,3.7,9.8,6.5,13.8c2.3,3.4,4.9,6.3,7.7,8.6
				c6.9,8.3,15.9,12.6,26.3,12.6c10.4,0,21.2-4.3,32-12.7c0.4-0.3,0.8-0.7,1.2-1c0.3,2,1.2,3.8,2.6,5.3c0.9,1,2,1.7,3.2,2.3
				c0.5,1,1,1.9,1.8,2.7c1.9,2,4.5,3.2,7.3,3.2c0.5,0,1,0,1.5-0.1l32.6-4.8c4.2-0.6,7.5-3.8,8.4-8c0-0.2,0.1-0.5,0.1-0.8
				c0.8,0.7,1.7,1.3,2.7,1.8c1.6,3.5,5.1,5.9,9.1,5.9c0.1,0,0.2,0,0.3,0c3.8-0.1,7.5-0.2,11.1-0.3c3.6-0.1,7.4-0.1,11.1-0.1
				c2.9,0,6,0,9.2,0.1c2.9,0.1,5.7,0.1,8.5,0.3c0.1,0,0.1,0.1,0.2,0.1c1.6,2,3.5,3.9,5.6,5.5c4.4,3.2,9.7,4.9,15.9,4.9
				c10.9,0,19.7-3.1,26-9.1c6.4-6.1,9.7-13.6,9.7-21.6c0-7.4-3.1-14.3-9-19.8c-0.6-0.6-1.2-1.1-1.9-1.6c0-0.1-0.1-0.1-0.1-0.2
				c3.9-0.4,7.2-3,8.5-6.7c5.8-17.1,11.8-34.4,17.8-51.6c5.9-16.8,12.4-33.7,19.6-50.4C494.8,189.7,494.3,185.8,492,182.9L492,182.9
				z M399.5,291.9c-2-6.2-3.8-12.5-5.5-18.8c-1.4-5.1-2.6-10.3-3.8-15.5c1.7-2.6,3.6-5.6,5.8-8.8c3.2-4.7,6.6-9.7,10.2-14.8
				c3.6-5.1,7-9.8,10.1-14.1c2.9-4.1,5.9-8.2,8.9-12.3l3.9-5.2c-0.8,3.1-1.6,6.1-2.3,9.2c-2.1,8.2-4.1,16.5-6,24.8l-6,24.5
				c-2,8-4,16.3-6.2,24.6c-0.6,2.2-0.4,4.6,0.6,6.6c-3.3,1.2-6,2.8-8.1,4.5C400.5,295.1,400,293.5,399.5,291.9L399.5,291.9z
				 M279.7,271.9c-1.4,0-2.8,0.3-4.1,0.9c0-0.2,0.1-0.3,0.1-0.5c1.6-4.8,3.4-9.5,5.4-14c3-6.7,6.1-12.4,9.3-17.2
				c0.3-0.4,0.5-0.8,0.8-1.1c1.8,1.7,4.2,2.6,6.8,2.6c0.9,0,1.7-0.1,2.6-0.3l8.9-2.4c-2.2,12.9-4.5,25.6-6.6,38
				c-0.1,0.8-0.3,1.5-0.4,2.2l-19-7.7C282.3,272.2,281,271.9,279.7,271.9L279.7,271.9z M192.3,242.5c0,4.7-0.7,10.2-2.1,16.2
				c-1.4,6-3.6,11.8-6.4,17.3c-2.6,5.1-5.8,9.3-9.4,12.4c-1.7,1.5-3.5,2.5-5.4,3.1c0.2-4.1,0.9-8.7,2.1-13.7
				c1.4-6,3.7-12.2,6.7-18.5c2.8-5.7,6.2-10.4,10.2-14c1.5-1.3,2.9-2.3,4.4-3C192.3,242.4,192.3,242.4,192.3,242.5L192.3,242.5z"></path>
        <path d="M30.8,334.6l10.5-52.3c1.6-9.7,3.3-19.6,5.2-29.8s3.7-20.2,5.3-30.2c1.7-9.9,3-19.2,3.9-28
				c7.7-2.4,15.9-4.2,24.8-5.3s17.6-1.7,26.4-1.7c10.2,0,17.1,2.2,20.8,6.6s5.5,10.4,5.5,17.9c0,6.8-1.6,13.7-4.8,20.6
				s-7.4,13.1-12.6,18.7c-5.2,5.6-10.8,10-17,13.2c2.4,5.4,5,11.2,7.8,17.6s5.3,12.4,7.8,18.2c1.3,3.4,2.7,6.7,4.1,10.1
				c1.4,3.4,2.8,6.7,4.1,10.1l-31.2,10.9c-1.3-4.7-2.6-9.2-3.8-13.5c-1.2-4.3-2.3-8.5-3.4-12.7c-1.3-5-2.6-9.8-3.8-14.4
				s-2.2-8.8-3.1-12.4c-0.9-3.6-1.4-6.2-1.5-7.6l-2.6,0.8c-0.8,4.3-1.8,9.5-2.9,15.7s-2.2,12.1-3.1,17.9l-3.6,21.1L30.8,334.6
				L30.8,334.6z M78.1,247.3c2.4-0.3,5.4-1.3,8.9-3.1c3.6-1.8,7.1-4.1,10.7-6.7c3.6-2.7,6.5-5.4,8.9-8.2c2.4-2.8,3.6-5.3,3.6-7.4
				c0-2.7-1.6-4.5-4.7-5.3s-7.3-1.3-12.4-1.3h-4.4c-0.8,0.1-1.5,0.2-2.2,0.2h-2L78.1,247.3L78.1,247.3z M151,335.3
				c-8.9,0-16.1-3.4-21.7-10.3c-5.6-6.8-8.4-17.2-8.4-31c0-7.7,0.9-15.7,2.8-24.2c1.9-8.4,4.5-16.8,7.8-24.9
				c3.4-8.2,7.2-15.8,11.7-22.7c7.1-11.3,15.3-20.5,24.6-27.6c9.3-7.1,19-10.7,29.2-10.7c8.1,0,14.2,2.1,18.6,6.1s7.4,9.3,9.2,15.7
				c1.7,6.4,2.6,13,2.6,19.8c0,16-2.4,30.8-7.3,44.6c-4.9,13.8-11.2,25.4-19,34.9c-7.8,9.8-16.1,17.3-24.9,22.4
				C167.3,332.7,158.9,335.3,151,335.3L151,335.3z M161.9,302.1c6,0,11.4-2,16-6c4.6-4,8.6-9.2,11.8-15.4c3.2-6.2,5.6-12.8,7.2-19.6
				s2.4-13,2.4-18.5c0-2.1-0.2-4.5-0.6-6.9c-0.4-2.5-1.3-4.7-2.6-6.5c-1.3-1.9-3.4-2.8-6.2-2.8c-6.2,0-11.7,2.2-16.7,6.7
				c-5,4.5-9.1,10.2-12.5,17c-3.4,7-5.8,13.8-7.4,20.5s-2.4,12.8-2.4,18.3c0,2.8,1,5.7,3,8.8C155.8,300.6,158.5,302.1,161.9,302.1
				L161.9,302.1z M250.4,334.9c-8.4,0-15.4-4-20.7-11.9c-5.4-7.9-8.1-18.8-8.1-32.6c0-12.6,1.7-25.1,5.2-37.3
				c3.5-12.3,8.4-23.3,14.7-33.1c6.3-9.8,13.8-17.7,22.4-23.6c8.6-6,18.2-8.9,28.7-8.9c6.6,0,12.2,2.6,16.9,7.6
				c4.7,5.1,7,11.9,7,20.5v3.8c0,0.4-0.1,0.9-0.2,1.4l-26.4,7c-1.6-3.4-3.5-5-5.6-5c-3.2,0-6.6,2.6-10.2,7.9
				c-3.6,5.2-6.9,11.5-10.2,18.7c-2.1,4.8-4.1,9.8-5.7,14.9c-1.7,5.1-3,9.9-3.9,14.3c-0.9,4.4-1.4,8.1-1.4,10.9
				c0,4.2,0.6,7.2,1.8,9.1c0.9,1.8,2.4,2.6,4.4,2.6s4.2-1,6.6-2.9c2.4-1.9,4.7-4.4,6.7-7.3c2.1-3,3.5-5.9,4.1-8.9l22.9,9.3
				c-6.6,15-14.4,26.1-23.4,33.1C267.2,331.4,258.6,334.9,250.4,334.9L250.4,334.9z M298.5,334.7c2-9.4,4-18.6,5.8-27.8
				c1.9-9.1,3.7-18.1,5.4-27c2.8-16,5.6-31.8,8.2-47.4c2.7-15.6,4.6-30.6,5.8-44.8l10.5,0.6c1.9,0.1,3.7,0.3,5.5,0.4
				c1.8,0.1,3.6,0.3,5.3,0.4c2,0.1,4,0.2,6,0.3c2,0.1,4,0.1,6,0.1c-0.3,1.1-0.7,3.2-1.3,6.4c-0.6,3.2-1.2,6.5-1.8,9.8
				s-1,5.5-1.3,6.7l-3.6,19.9l1.2-0.2c3.9-6,8.4-13,13.5-20.9c5.1-7.9,9.9-15.5,14.3-22.7c6.7-0.5,13.4-1.1,20.1-1.8
				s13.4-1.5,20.1-2.6c-3.1,4.2-6.2,8.3-9.3,12.5s-6.1,8.3-9,12.5c-3.1,4.3-6.4,9-10.1,14.1c-3.6,5.1-7.1,10.1-10.4,15
				c-3.3,4.9-6,9.1-8.1,12.6c1.5,6.7,3.1,13.3,4.8,19.9c1.7,6.6,3.6,13,5.6,19.3c2,6.3,4,12.7,6,19.1s4.1,13,6.2,19.5
				c-3.1-0.1-6.2-0.2-9.5-0.3c-3.2-0.1-6.4-0.1-9.5-0.1c-3.9,0-7.6,0-11.3,0.1c-3.6,0.1-7.4,0.2-11.3,0.3c-0.5-4.3-1.1-8.8-1.8-13.4
				c-0.7-4.6-1.3-9.4-2-14.2c-0.7-4.7-1.3-9.4-2-14s-1.3-9.1-2-13.4l-3.6,4.2c-0.9,3.9-1.9,8.9-3,14.9c-0.5,3-1.1,5.9-1.7,8.8
				c-0.6,2.9-1.2,5.7-1.7,8.4c-0.5,3.2-1.1,6.5-1.8,9.8c-0.7,3.3-1.3,6.7-2,10.2L298.5,334.7L298.5,334.7z M414.8,339.1
				c-4,0-7.3-1-10-2.9s-4.6-4.4-5.8-7.2s-1.9-5.8-1.9-8.8c0-5.4,1.8-10,5.3-14c3.5-4,8.5-5.9,14.8-5.9c7.8,0,13.6,1.9,17.5,5.5
				c3.9,3.7,5.8,7.9,5.8,12.6c0,5.4-2.2,10.2-6.6,14.4C429.5,337,423.1,339.1,414.8,339.1L414.8,339.1z M415.2,288
				c2.1-8.3,4.2-16.6,6.2-24.8c2-8.2,4-16.4,6-24.6c1.9-8.2,3.9-16.4,5.9-24.6c2.1-8.2,4.2-16.5,6.3-24.6c7.6-1.2,14.6-2.2,20.9-3
				s11.5-1.5,15.5-2.2c-7.2,16.9-13.9,33.9-19.8,51c-6,17.1-11.9,34.3-17.8,51.6c-3.9,0-7.8,0.1-11.7,0.4
				C423,287.4,419.1,287.7,415.2,288L415.2,288z" style="fill:#ffe000"></path>
        <path d="M253,299.4c0-1.5,0.1-3.1,0.4-5c0.3,1.7,0.8,3.1,1.4,4.1c0.9,1.7,2.4,2.6,4.4,2.6s4.2-1,6.6-2.9
				c2.4-1.9,4.7-4.4,6.7-7.3c2.1-3,3.5-5.9,4.1-8.9l22.9,9.3c-1.3,3-2.6,5.7-4,8.4l-18.9-7.6c-0.7,3-2,5.9-4.1,8.9
				c-2.1,3-4.3,5.4-6.7,7.3c-2.4,2-4.6,2.9-6.6,2.9s-3.5-0.9-4.4-2.6C253.6,306.6,253,303.5,253,299.4L253,299.4z M87.1,254.2
				c3.6-1.8,7.1-4.1,10.7-6.7c3.6-2.7,6.5-5.4,8.9-8.2c2.4-2.8,3.6-5.3,3.6-7.4c0-1.9-0.8-3.3-2.3-4.3c-0.4,0.6-0.8,1.1-1.3,1.7
				c-2.4,2.8-5.4,5.6-8.9,8.2c-3.6,2.7-7.1,4.9-10.7,6.7c-2.6,1.3-4.9,2.2-6.9,2.7l-2.1,10.4C80.6,257,83.5,256,87.1,254.2
				L87.1,254.2z M304.3,306.9c-1.9,9.1-3.8,18.4-5.8,27.8l2.2-0.3c1.2-5.9,2.5-11.7,3.6-17.5c1.9-9.1,3.7-18.1,5.4-27
				c2.8-16,5.6-31.8,8.2-47.4c2.7-15.6,4.6-30.6,5.8-44.8l10.5,0.6c1.9,0.1,3.7,0.3,5.5,0.4c1.8,0.1,3.6,0.3,5.3,0.4
				c2,0.1,4,0.2,6,0.3c1.4,0.1,2.7,0.1,4.1,0.1c0.2-1.2,0.4-2.4,0.6-3.5c0.6-3.2,1-5.4,1.3-6.4c-2,0-4,0-6-0.1c-2-0.1-4-0.2-6-0.3
				c-1.8-0.1-3.5-0.3-5.3-0.4c-1.8-0.1-3.7-0.3-5.5-0.4l-10.5-0.6c-1.2,14.2-3.1,29.1-5.8,44.8c-2.7,15.6-5.4,31.4-8.2,47.4
				C308,288.8,306.2,297.8,304.3,306.9L304.3,306.9z M349.2,242.4l1.2-0.2c3.9-6,8.4-13,13.5-20.9c5.1-7.9,9.9-15.5,14.3-22.7
				c6.7-0.5,13.4-1.1,20.1-1.8c3.9-0.4,7.9-0.9,11.8-1.4c2.8-3.7,5.5-7.5,8.3-11.2c-6.7,1.1-13.4,1.9-20.1,2.6
				c-6.7,0.7-13.4,1.3-20.1,1.8c-4.4,7.2-9.2,14.8-14.3,22.7c-4.7,7.3-8.9,13.8-12.6,19.5L349.2,242.4L349.2,242.4z M417.8,287.8
				c1.2-4.9,2.5-9.7,3.6-14.6c2-8.2,4-16.4,6-24.6c1.9-8.2,3.9-16.4,5.9-24.6c2.1-8.2,4.2-16.5,6.3-24.6c7.6-1.2,14.6-2.2,20.9-3
				c4.2-0.5,7.8-1,11-1.5c1.5-3.6,3-7.1,4.5-10.7c-4,0.7-9.2,1.4-15.5,2.2s-13.3,1.8-20.9,3c-2.1,8.2-4.3,16.4-6.3,24.6
				s-4.1,16.5-5.9,24.6c-2,8.2-4,16.4-6,24.5c-2,8.2-4.1,16.4-6.2,24.8C416,287.9,416.9,287.8,417.8,287.8L417.8,287.8z
				 M225.5,258.3c-0.6,3.4-1.2,6.8-2,10.1c-1.2,7.3-1.8,14.6-1.8,22c0,1.6,0,3.2,0.1,4.7c0.4-10.8,2.1-21.5,5.1-32
				c3.5-12.3,8.4-23.3,14.7-33.1c6.3-9.8,13.8-17.7,22.4-23.6c8.6-6,18.2-8.9,28.7-8.9c6.6,0,12.2,2.6,16.9,7.6
				c3.8,4.1,6,9.4,6.8,15.8l0.1,0c0.1-0.5,0.2-1,0.2-1.4v-3.8c0-8.6-2.4-15.4-7-20.5c-4.7-5.1-10.3-7.6-16.9-7.6
				c-10.5,0-20,3-28.7,8.9c-8.6,6-16.1,13.9-22.4,23.6c-6.3,9.8-11.2,20.8-14.7,33.1C226.4,254.8,225.9,256.5,225.5,258.3
				L225.5,258.3z M122.3,319.6c-1.2-3.1-2.5-6.2-3.8-9.3c-1.4-3.4-2.8-6.7-4.1-10.1c-2.4-5.8-5-11.8-7.8-18.2
				c-1.4-3.4-2.8-6.6-4.2-9.6c-1.2,0.7-2.3,1.4-3.6,2c2.4,5.4,5,11.2,7.8,17.6s5.3,12.5,7.8,18.2c1.3,3.4,2.7,6.7,4.1,10.1
				c0.2,0.4,0.4,0.9,0.5,1.3l3.5-1.2C122.4,320.1,122.4,319.9,122.3,319.6L122.3,319.6z M41.3,292.3c1.6-9.7,3.3-19.6,5.2-29.8
				s3.7-20.2,5.3-30.2c1.7-9.9,3-19.2,3.9-28c7.7-2.4,15.9-4.2,24.8-5.3s17.6-1.7,26.4-1.7c10.2,0,17.1,2.2,20.8,6.6
				c2.9,3.4,4.6,7.8,5.2,13c0.2-1.7,0.3-3.4,0.3-5.1c0-7.5-1.9-13.5-5.5-17.9c-3.7-4.4-10.6-6.6-20.8-6.6c-8.7,0-17.5,0.6-26.4,1.7
				s-17.1,2.9-24.8,5.3c-0.9,8.7-2.2,18.1-3.9,28c-1.7,9.9-3.5,20-5.3,30.2c-1.9,10.2-3.6,20.1-5.2,29.8l-10.5,52.3l2.1-0.5
				L41.3,292.3L41.3,292.3z M417.2,300.2c-6.3,0-11.2,2-14.8,5.9c-3.6,4-5.3,8.6-5.3,14c0,1.6,0.2,3.3,0.6,4.9
				c0.8-3.3,2.4-6.2,4.7-8.9c3.5-4,8.5-5.9,14.8-5.9c7.8,0,13.6,1.9,17.5,5.5c2.5,2.4,4.2,5,5.1,7.7c0.5-1.7,0.8-3.4,0.8-5.2
				c0-4.7-2-8.9-5.8-12.6C430.8,302.1,425,300.2,417.2,300.2L417.2,300.2z M382,290c-2-6.3-3.9-12.7-5.6-19.3
				c-1.1-4.2-2.1-8.4-3.1-12.6c-0.6,0.9-1.2,1.8-1.7,2.7c1.5,6.7,3.1,13.3,4.8,19.9c1.7,6.6,3.6,13,5.6,19.3c2,6.3,4,12.7,6,19.1
				c1,3.1,2,6.2,3,9.4c1.1,0,2.2,0.1,3.3,0.1c-2.1-6.6-4.2-13.1-6.2-19.5S384,296.3,382,290L382,290z M123.6,269.8
				c-1.9,8.4-2.8,16.5-2.8,24.1c0,1.8,0.1,3.4,0.1,5.1c0.3-6.2,1.2-12.6,2.7-19.2c1.9-8.5,4.5-16.8,7.9-25
				c3.4-8.2,7.2-15.8,11.7-22.7c7.1-11.3,15.3-20.5,24.6-27.6c9.3-7.1,19-10.7,29.2-10.7c8.1,0,14.2,2.1,18.6,6.1s7.4,9.3,9.2,15.7
				c1.4,5.1,2.2,10.4,2.5,15.8c0.1-2,0.1-3.9,0.1-5.9c0-6.8-0.9-13.4-2.6-19.8s-4.8-11.6-9.2-15.7c-4.4-4.1-10.6-6.1-18.6-6.1
				c-10.2,0-19.9,3.6-29.2,10.7c-9.3,7.1-17.4,16.3-24.6,27.6c-4.4,7-8.3,14.6-11.7,22.7C128.1,253.1,125.5,261.4,123.6,269.8
				L123.6,269.8z M153.8,307.5c2,3,4.7,4.5,8.1,4.5c6,0,11.4-2,16-6s8.6-9.2,11.8-15.4c3.2-6.2,5.6-12.8,7.2-19.6
				c1.6-6.8,2.4-13,2.4-18.5c0-1.4-0.1-2.9-0.3-4.4c-0.4,4-1.1,8.3-2.1,12.9c-1.6,6.8-4,13.4-7.2,19.6c-3.2,6.2-7.1,11.4-11.8,15.4
				s-10,6-16,6c-3.4,0-6-1.5-8.1-4.5c-1.3-1.9-2.2-3.8-2.6-5.7c-0.3,2.4-0.4,4.7-0.4,6.9C150.8,301.6,151.8,304.5,153.8,307.5
				L153.8,307.5z" style="fill:#fbff66"></path>
      </g>
    </g>
  </g>
</svg>
