<svg xmlns="http://www.w3.org/2000/svg" xml:space="preserve" id="pruning-shears" x="0" y="0" style="enable-background:new 0 0 48 48" version="1.1" viewBox="0 0 48 48">
  <rect width="11" height="3" x="20" y="28" style="fill:#ccc"></rect>
  <path d="M22 28.5V28h-2v2.5c0 0 .51-.693 1.129-1.129C21.747 28.936 22 28.5 22 28.5zM22 31v-3h3c0 0-.881 1.166-1.609 1.609S22 31 22 31zM25 31v-3h3c0 0-.69.916-1.469 1.469S25 31 25 31zM28 31v-3h3c0 0-1.319 1.498-1.925 1.925C28.468 30.352 28 31 28 31z" style="fill:#efefef"></path>
  <path d="M33,1c-6.001,2-12,9-12,16c0,0.586,0.133,1.139,0.36,1.64L15,25l4,4l10-10l-0.36-0.36
	C28.867,18.139,29,17.586,29,17L33,1z" style="fill:#ccc"></path>
  <path d="M21 17c0 .586.133 1.139.36 1.64L15 25l2 2c0 0 3.523-3.862 4.623-4.623C22.723 21.615 27 17 27 17H21zM32 5l1-4c-5.699 1.899-11.386 8.309-11.945 14.945 0 0 4.372-5.015 6.773-6.773S32 5 32 5z" style="fill:#efefef"></path>
  <path d="M35,25l-6.36-6.36C28.867,18.139,29,17.586,29,17c0-2.209-1.791-4-4-4c-1.127,0-2.142,0.47-2.869,1.221
	C20.016,11.425,19.192,7.53,21,1c-7.352,3.676-6.434,17.477,1.69,19.69L31,29L35,25z" style="fill:#ccc"></path>
  <path d="M21.672,20.328c0,0,0.844-1.566,2.975-2.975s3.182-3.182,3.182-3.182C27.105,13.448,26.105,13,25,13
	c-1.127,0-2.142,0.47-2.869,1.221C20.016,11.425,19.192,7.53,21,1C13.969,4.515,14.507,17.283,21.672,20.328z" style="fill:#efefef"></path>
  <path d="M37 45c0 1.105-.895 2-2 2-1.105 0-2-.895-2-2 0-8.418-1.773-14.468-5-19l4-4 3 3c-.901.901-1.182 2.241-.724 3.43C36.053 33.047 37 38.702 37 45zM14.562 46.249C18.713 41.06 22 32 22 26l-4-4-3 3c1.287 1.287 1.923 3.086 1.731 4.895-.555 5.236-2.705 10.585-5.24 13.79-.677.856-.581 2.219.279 2.891C12.626 47.247 13.874 47.109 14.562 46.249z" style="fill:#74cc5e"></path>
  <path d="M34.276 28.43C33.818 27.241 34.099 25.901 35 25l-3-3-4 4c1.916 2.691 3.305 5.933 4.129 9.871 0 0 .718-.983 1.795-1.795 1.077-.812 1.618-1.618 1.618-1.618C35.181 31.045 34.763 29.695 34.276 28.43zM16.731 29.895c-.318 3.005-1.173 6.034-2.314 8.688 0 0 2-2.595 3.791-3.791 1.791-1.196 3.029-3.029 3.029-3.029C21.722 29.7 22 27.722 22 26l-4-4-3 3C16.287 26.287 16.923 28.086 16.731 29.895z" style="fill:#a8ea92"></path>
  <path d="M37.76,44.444c0.108-5.163-0.508-10.385-2.182-15.296c-0.543-1.281-0.795-2.423,0.198-3.439
	c0.951-1.011-0.573-1.871-1.162-2.543c-0.018-0.002-1.942-1.9-1.959-1.894c-0.3-0.293-0.737-0.348-1.095-0.181
	c-0.737-0.849-1.581-1.624-2.228-2.532c0.364-0.772,0.425-1.524,0.422-2.228c1.77-4.857,2.928-9.98,4.135-14.974
	c0.234-0.729-0.532-1.471-1.257-1.198c-5.225,1.788-9.268,6.182-11.028,11.308c-1.193-3.172-0.605-6.868,0.303-10.152
	c0.092-0.277,0.08-0.581-0.085-0.847c-0.279-0.451-0.871-0.591-1.323-0.312c-6.957,3.653-7.14,14.799-1.409,19.488
	c-0.55,0.298-0.935,0.77-1.175,1.372c-0.525-0.049-1.362,1.087-1.719,1.378c0,0-1.908,1.932-1.908,1.932
	c-0.383,0.388-0.386,1.017,0,1.405c2.878,2.924,0.876,7.51-0.011,10.934c-0.818,2.448-1.939,4.78-3.445,6.86
	c-1.175,1.88,0.492,4.629,2.728,3.891c0.694-0.213,1.058-0.696,1.133-1.002c0.252-0.139,0.575-0.426,0.897-0.833
	c3.049-4.196,5.408-8.922,6.587-13.976c2.632,0.548,5.279,0.616,7.914,0.049c1.59,3.822,2.197,8.055,2.422,12.238
	c0.03,0.556,0.144,1.031,0.301,1.269c-0.207,0.32-0.035,1.109,0.261,1.482C34.809,49.014,38.071,47.093,37.76,44.444z
	 M22.263,12.689c1.869-4.141,5.167-7.934,9.264-9.921c-0.876,3.924-1.629,7.83-2.427,11.763c-1.323-2.147-4.417-3.229-6.811-1.637
	c-0.025-0.042-0.045-0.084-0.069-0.126C22.234,12.739,22.25,12.721,22.263,12.689z M14.771,45.004
	c-0.289,0.443-0.491,0.867-0.535,1.156c-0.243,0.079-0.561,0.218-0.932,0.289c-1.293,0.333-1.994-1.282-1.328-2.209
	c3.081-3.781,4.814-8.48,5.582-13.257c0.431-1.998,0.027-4.242-1.214-5.906c0.514-0.515,1.143-1.146,1.66-1.667l3.001,2.977
	C20.705,32.877,18.155,39.453,14.771,45.004z M22.083,24.714c-0.704-0.712-1.995-2.018-2.737-2.769c0.528-0.305,0.9-0.77,1.13-1.365
	c1.353,0.541,2.586,1.22,3.568,2.352C23.188,23.318,22.523,23.91,22.083,24.714z M22.887,30.238c0.18-0.482,0.187-0.972,0.015-1.455
	c0.389,0.085,0.778,0.145,1.167,0.19c-0.097,0.375-0.089,0.753,0.025,1.127C23.692,30.13,23.29,30.174,22.887,30.238z
	 M27.059,30.083c-0.371-0.018-0.742-0.044-1.114-0.043c0.088-0.334,0.094-0.669,0.015-1.003c0.37-0.017,0.74-0.049,1.11-0.099
	C26.957,29.317,26.952,29.701,27.059,30.083z M22.874,27.36c0.042-0.445,0.074-0.892,0.096-1.341c0.96-0.445,1.66-1.167,2.086-2.144
	c0.646,0.588,1.304,1.296,2.006,1.815c-0.278,0.558,0.193,1.059,0.513,1.487C26.008,26.927,24.436,26.998,22.874,27.36z
	 M27.25,24.562c-1.446-1.449-2.737-3.257-4.383-4.516c-6.382-2.135-7.783-11.728-3.528-16.465c-0.678,3.852-0.49,8.028,2.042,11.159
	c0.316,0.442,0.983,0.485,1.35,0.083c1.609-1.849,4.824-1.03,5.512,1.286c0.291,0.836,0.162,1.505-0.201,2.325
	c-0.082,0.2-0.053,0.438,0.096,0.614c0.691,0.735,1.74,1.984,2.744,2.64c-0.77,0.789-2.487,2.542-3.252,3.328
	C27.522,24.876,27.406,24.73,27.25,24.562z M28.843,30.264c0.115-0.29,0.164-0.584,0.151-0.877c0.18,0.325,0.35,0.653,0.513,0.985
	C29.286,30.33,29.064,30.296,28.843,30.264z M33.868,46.037c-0.28-0.321-0.459-0.676-0.627-0.878c0.144-0.236,0.25-0.703,0.27-1.284
	c0.226-6.091-0.735-12.586-4.315-17.703l2.784-2.784c0.554,0.541,1.224,1.194,1.762,1.716c-0.852,1.42-0.717,3.28,0,4.689
	c0.88,2.461,1.492,5,1.914,7.59c0.405,2.542,0.655,5.206,0.71,7.781C36.287,46.361,34.721,47.126,33.868,46.037z M26,17
	c-0.121,1.371-2.177,1.315-2,0C23.944,15.753,26.152,15.6,26,17z"></path>
</svg>
